<svg width="1386" height="929" viewBox="0 0 1386 929" fill="none" xmlns="http://www.w3.org/2000/svg">
<g clip-path="url(#clip0_1538_251)">
<path d="M176.837 187.757V215.536C154.325 201.337 128.874 192.45 102.414 189.549C60.3157 189.549 28.5887 217.662 28.3602 251.046C28.1141 296.061 59.2259 307.271 86.5764 319.571C113.083 331.554 169.894 346.593 183.393 382.595C193.388 405.199 194.005 430.844 185.107 453.901C176.21 476.959 158.525 495.548 135.934 505.588C76.6629 533.613 20.3271 493.166 4.84132 485.698V454.827C21.2198 467.527 39.3557 477.784 58.6814 485.277C82.3582 492.411 121.257 499.526 149.012 465.071C154.774 457.957 158.985 449.717 161.373 440.881C163.762 432.044 164.277 422.806 162.883 413.759C161.489 404.712 158.218 396.057 153.281 388.348C148.343 380.639 141.848 374.047 134.212 368.996C106.984 352.708 66.169 340.602 40.3653 326.018C27.5147 319.24 16.8874 308.908 9.75279 296.255C2.61819 283.603 -0.722201 269.165 0.130466 254.665C0.688112 238.354 5.71528 222.509 14.6637 208.858C23.6122 195.207 36.1388 184.273 50.877 177.25C79.2646 162.719 120.747 158.274 176.837 187.757Z" fill="#E42E29"/>
<path d="M373.194 167.604H359.994L201.797 510.596H228.497L282.794 392.277H450.113L504.164 510.596H531.321L373.194 167.604ZM292.338 371.175L366.515 209.826L440.551 371.175H292.338Z" fill="#E42E29"/>
<path d="M397.082 -0.000244141H425.435L620.544 455.794L812.947 -0.000244141H840.807L625.764 513.811H615.078L397.082 -0.000244141Z" fill="#E42E29"/>
<path d="M941.949 165.689C907.493 166.667 874.089 177.773 845.913 197.621C817.737 217.469 796.038 245.177 783.527 277.284C771.017 309.39 768.25 344.471 775.573 378.14C782.896 411.809 799.984 442.574 824.701 466.59C849.418 490.606 880.668 506.807 914.545 513.17C948.422 519.532 983.424 515.772 1015.17 502.361C1046.93 488.95 1074.02 466.482 1093.07 437.766C1112.12 409.049 1122.28 375.357 1122.28 340.901C1121.6 293.767 1102.22 248.832 1068.4 215.976C1034.59 183.12 989.102 165.032 941.949 165.689ZM941.949 492.393C912.029 492.143 882.854 483.047 858.098 466.249C833.342 449.452 814.114 425.706 802.837 398.004C791.561 370.301 788.74 339.881 794.729 310.579C800.719 281.276 815.252 254.401 836.497 233.341C857.741 212.281 884.747 197.978 914.11 192.234C943.473 186.491 973.88 189.564 1001.5 201.066C1029.12 212.568 1052.71 231.985 1069.31 256.87C1085.91 281.755 1094.77 310.993 1094.77 340.901C1094.59 381.246 1078.4 419.87 1049.74 448.279C1021.08 476.689 982.309 492.557 941.949 492.393Z" fill="#E42E29"/>
<path d="M1227.46 510.948H1253.26V328.742L1386.06 170.327H1354.95L1240.8 305.778L1126.55 170.327H1095.31L1227.35 328.074L1227.46 510.948Z" fill="#E42E29"/>
<path d="M313 642.532H333.267V690.447H388.302V642.532H408.551V757.794H388.302V709.229H333.267V757.794H313V642.532Z" fill="#231F20"/>
<path d="M484.047 700.497V700.181C484.003 684.193 490.314 668.841 501.593 657.504C512.872 646.168 528.194 639.774 544.189 639.73C560.183 639.685 575.54 645.994 586.882 657.268C598.223 668.543 604.619 683.859 604.664 699.847V700.181C604.706 716.169 598.392 731.519 587.112 742.855C575.832 754.19 560.508 760.581 544.514 760.623C528.519 760.665 513.163 754.354 501.823 743.078C490.483 731.802 484.089 716.485 484.047 700.497ZM583.395 700.497V700.181C583.598 694.893 582.735 689.617 580.859 684.668C578.983 679.719 576.132 675.197 572.475 671.37C568.817 667.544 564.428 664.49 559.567 662.392C554.707 660.293 549.474 659.192 544.18 659.154C538.915 659.162 533.707 660.238 528.869 662.314C524.032 664.39 519.665 667.424 516.033 671.233C512.401 675.043 509.578 679.549 507.737 684.479C505.895 689.409 505.071 694.66 505.316 699.917V700.251C505.115 705.538 505.98 710.81 507.857 715.756C509.734 720.702 512.586 725.221 516.244 729.044C519.901 732.867 524.29 735.917 529.149 738.013C534.009 740.108 539.239 741.206 544.531 741.243C549.794 741.234 555.001 740.16 559.838 738.085C564.674 736.01 569.04 732.977 572.671 729.169C576.303 725.362 579.126 720.858 580.969 715.931C582.812 711.003 583.637 705.752 583.395 700.497Z" fill="#231F20"/>
<path d="M702.974 661.28H666.412V642.532H759.995V661.28H723.398V757.776H702.974V661.28Z" fill="#231F20"/>
<path d="M831.5 642.532H917.014V660.63H851.784V690.587H909.597V708.72H851.784V739.679H917.823V757.776H831.518L831.5 642.532Z" fill="#231F20"/>
<path d="M992.176 642.532H1012.42V739.345H1073.05V757.794H992.193L992.176 642.532Z" fill="#231F20"/>
<path d="M185 838.477H201.927L229.489 881.261L257.05 838.477H273.977V928.982H258.07V864.077L229.489 906.738H228.961L200.714 864.323V928.982H185.053L185 838.477Z" fill="#231F20"/>
<path d="M426.268 837.827H441.015L480.934 929.053H464.13L454.954 907.213H412.03L402.732 929.053H386.438L426.268 837.827ZM449.119 893.033L433.457 856.821L417.936 893.033H449.119Z" fill="#231F20"/>
<path d="M595.803 838.477H610.568L659.064 901.063V838.477H674.725V928.982H661.402L611.464 864.569V928.982H595.803V838.477Z" fill="#231F20"/>
<path d="M797.873 838.477H813.693V928.982H797.873V838.477Z" fill="#231F20"/>
<path d="M935.401 838.477H951.308V914.504H998.89V929H935.383L935.401 838.477Z" fill="#231F20"/>
<path d="M1146.91 837.827H1161.66L1201.52 928.983H1184.68L1175.51 907.143H1132.69L1123.35 928.983H1107.06L1146.91 837.827ZM1169.76 893.033L1154.1 856.821L1138.58 893.033H1169.76Z" fill="#231F20"/>
</g>
<defs>
<clipPath id="clip0_1538_251">
<rect width="1386" height="929" fill="white"/>
</clipPath>
</defs>
</svg>
